<svg width="128" height="128" version="1.1" xmlns="http://www.w3.org/2000/svg" desc="Created with imagetracer.js version 1.2.6" ><path fill="rgb(174,198,223)" stroke="rgb(174,198,223)" stroke-width="1" opacity="0.9921568627450981" d="M 116.5 6 L 117.5 8 L 116.5 6 Z " /><path fill="rgb(174,198,223)" stroke="rgb(174,198,223)" stroke-width="1" opacity="0.9921568627450981" d="M 119.5 9 L 120.5 11 L 119.5 9 Z " /><path fill="rgb(174,198,223)" stroke="rgb(174,198,223)" stroke-width="1" opacity="0.9921568627450981" d="M 52.5 21 L 53 32.5 L 52 32.5 L 52.5 21 Z " /><path fill="rgb(174,198,223)" stroke="rgb(174,198,223)" stroke-width="1" opacity="0.9921568627450981" d="M 44.5 27 L 45 35.5 L 44 35.5 L 44.5 27 Z " /><path fill="rgb(174,198,223)" stroke="rgb(174,198,223)" stroke-width="1" opacity="0.9921568627450981" d="M 106.5 33 L 107.5 35 L 106.5 33 Z " /><path fill="rgb(174,198,223)" stroke="rgb(174,198,223)" stroke-width="1" opacity="0.9921568627450981" d="M 94.5 34 L 99 34.5 L 94.5 35 L 94.5 34 Z " /><path fill="rgb(174,198,223)" stroke="rgb(174,198,223)" stroke-width="1" opacity="0.9921568627450981" d="M 102.5 36 L 103.5 38 L 102.5 36 Z " /><path fill="rgb(174,198,223)" stroke="rgb(174,198,223)" stroke-width="1" opacity="0.9921568627450981" d="M 28.5 40 L 29 43.5 L 27 44.5 L 28.5 40 Z " /><path fill="rgb(174,198,223)" stroke="rgb(174,198,223)" stroke-width="1" opacity="0.9921568627450981" d="M 105.5 49 L 106 53.5 L 105 53.5 L 105.5 49 Z " /><path fill="rgb(174,198,223)" stroke="rgb(174,198,223)" stroke-width="1" opacity="0.9921568627450981" d="M 29.5 52 L 30 71.5 L 29 71.5 L 29.5 52 Z " /><path fill="rgb(174,198,223)" stroke="rgb(174,198,223)" stroke-width="1" opacity="0.9921568627450981" d="M 73.5 56 L 67.5 63 L 73.5 56 Z " /><path fill="rgb(174,198,223)" stroke="rgb(174,198,223)" stroke-width="1" opacity="0.9921568627450981" d="M 64.5 57 L 66 63.5 L 61.5 69 L 61 67.5 L 61 65.5 L 60 61.5 L 61 59 Q 64.8 60.3 64.5 57 Z " /><path fill="rgb(174,198,223)" stroke="rgb(174,198,223)" stroke-width="1" opacity="0.9921568627450981" d="M 44.5 62 L 45 64 Q 47.7 65.1 47 62.5 L 48 62.5 L 45.5 67 Q 42.6 67.4 44.5 62 Z " /><path fill="rgb(174,198,223)" stroke="rgb(174,198,223)" stroke-width="1" opacity="0.9921568627450981" d="M 56.5 82 L 57 89.5 L 56 90.5 L 56 100.5 L 54.5 102 L 53 100.5 L 53 88.5 L 54 88.5 L 54.5 101 Q 53.6 89.6 56.5 82 Z " /><path fill="rgb(174,198,223)" stroke="rgb(174,198,223)" stroke-width="1" opacity="0.9921568627450981" d="M 58.5 82 L 59 106.5 L 58 106.5 L 58.5 82 Z " /><path fill="rgb(174,198,223)" stroke="rgb(174,198,223)" stroke-width="1" opacity="0.9921568627450981" d="M 38.5 83 L 38 84.5 L 38 96.5 L 37 97.5 L 38 100.5 L 37 102.5 L 39 106.5 L 36.5 107 L 34 105.5 L 34 87.5 L 32.5 87 L 32.5 86 L 35 86.5 L 35 105.5 L 36 105.5 L 36 84.5 L 37.5 84 L 38.5 83 Z " /><path fill="rgb(174,198,223)" stroke="rgb(174,198,223)" stroke-width="1" opacity="0.9921568627450981" d="M 61.5 83 L 62 106.5 L 61 106.5 L 61.5 83 Z " /><path fill="rgb(174,198,223)" stroke="rgb(174,198,223)" stroke-width="1" opacity="0.9921568627450981" d="M 63.5 87 L 65 87.5 L 65 101.5 L 66 101.5 L 66.5 88 L 67 101.5 Q 65.5 104.5 64 101.5 L 64 88.5 L 63.5 87 Z " /><path fill="rgb(174,198,223)" stroke="rgb(174,198,223)" stroke-width="1" opacity="0.9921568627450981" d="M 126.5 87 L 127 92 Q 122 91.2 120 94.5 Q 119.2 97.1 122.5 96 L 127 97 Q 127.2 113.4 117.5 121 L 108.5 126 Q 103.8 124.7 102.5 127 L 24.5 127 Q 14 125 8 118.5 L 3 110.5 L 1 98.5 L 3.5 97 Q 5 99.5 6.5 96 Q 9.1 96.7 8 94 L 4.5 92 L 1 92 L 1 89 L 7.5 89 L 16.5 93 L 24 93 L 25 96.5 L 23.5 96 L 13.5 97 L 5 102.5 Q 7.7 111.8 15.5 116 L 28.5 120 L 90.5 120 L 91.5 119 L 103.5 119 L 109.5 117 L 119 109.5 L 123 101.5 L 111.5 97 L 109.5 97 L 106.5 96 L 104.5 97 L 103 95.5 L 104.5 92 Q 109.3 93.3 110.5 91 L 112.5 91 L 126 90 L 126.5 87 Z M 106 93 L 105 96 L 106 96 L 106 93 Z M 109 93 L 107 95 L 109 95 L 109 93 Z " /><path fill="rgb(174,198,223)" stroke="rgb(174,198,223)" stroke-width="1" opacity="0.9921568627450981" d="M 39.5 88 L 40 102 L 42 102.5 L 40 103 L 39.5 105 L 39.5 88 Z " /><path fill="rgb(174,198,223)" stroke="rgb(174,198,223)" stroke-width="1" opacity="0.9921568627450981" d="M 85.5 88 L 86 100.5 L 84 101.5 L 85 100.5 L 85.5 88 Z " /><path fill="rgb(174,198,223)" stroke="rgb(174,198,223)" stroke-width="1" opacity="0.9921568627450981" d="M 90.5 89 Q 93.1 91.4 92 97.5 L 91 97.5 L 90.5 89 Z " /><path fill="rgb(174,198,223)" stroke="rgb(174,198,223)" stroke-width="1" opacity="0.9921568627450981" d="M 82.5 90 L 83 98.5 L 82 98.5 L 82.5 90 Z " /><path fill="rgb(174,198,223)" stroke="rgb(174,198,223)" stroke-width="1" opacity="0.9921568627450981" d="M 88.5 90 L 89 99.5 L 90 100.5 L 88 99.5 L 88.5 90 Z " /><path fill="rgb(174,198,223)" stroke="rgb(174,198,223)" stroke-width="1" opacity="0.9921568627450981" d="M 27.5 91 Q 30 92 29 96.5 Q 27.5 99.5 26 96.5 L 28 96.5 L 27.5 92 L 26.5 94 L 26 92.5 L 27.5 91 Z " /><path fill="rgb(174,198,223)" stroke="rgb(174,198,223)" stroke-width="1" opacity="0.9921568627450981" d="M 31.5 91 L 32 98.5 L 31 98.5 L 31.5 91 Z " /><path fill="rgb(174,198,223)" stroke="rgb(174,198,223)" stroke-width="1" opacity="0.9921568627450981" d="M 42.5 91 L 43 97.5 L 42 97.5 L 42.5 91 Z " /><path fill="rgb(174,198,223)" stroke="rgb(174,198,223)" stroke-width="1" opacity="0.9921568627450981" d="M 80.5 91 L 81 97.5 L 80 97.5 L 80.5 91 Z " /><path fill="rgb(174,198,223)" stroke="rgb(174,198,223)" stroke-width="1" opacity="0.9921568627450981" d="M 46.5 92 L 48 96 Q 51 97.3 50 93.5 L 49.5 92 L 51 95.5 L 48.5 97 L 46.5 93 L 45.5 96 L 45 93.5 L 46.5 92 Z " /><path fill="rgb(174,198,223)" stroke="rgb(174,198,223)" stroke-width="1" opacity="0.9921568627450981" d="M 93.5 92 L 94 96 Q 97 97.3 96 93.5 L 97 93.5 L 95.5 97 L 93 97 L 93.5 92 Z " /><path fill="rgb(174,198,223)" stroke="rgb(174,198,223)" stroke-width="1" opacity="0.9921568627450981" d="M 71.5 93 L 72.5 95 L 71.5 93 Z " /><path fill="rgb(174,198,223)" stroke="rgb(174,198,223)" stroke-width="1" opacity="0.9921568627450981" d="M 75.5 93 L 75.5 96 Q 72.5 94.5 75.5 93 Z " /><path fill="rgb(174,198,223)" stroke="rgb(174,198,223)" stroke-width="1" opacity="0.9921568627450981" d="M 98.5 93 Q 103.8 91.5 102 96 L 98 95.5 L 101 94.5 Q 97.7 94.6 98.5 93 Z " /><path fill="rgb(0,0,0)" stroke="rgb(0,0,0)" stroke-width="1" opacity="0" d="M 0 0 L 28 0.5 Q 12.1 1.1 6 11.5 L 2 19.5 L 0.5 35 L 0 0 Z " /><path fill="rgb(0,0,0)" stroke="rgb(0,0,0)" stroke-width="1" opacity="0" d="M 100.5 0 L 128 0 L 128 24.5 L 127 24.5 Q 125.8 11.8 117.5 6 L 106.5 1 L 100.5 1 L 100.5 0 Z " /><path fill="rgb(0,0,0)" stroke="rgb(0,0,0)" stroke-width="1" opacity="0" d="M 0.5 98 Q 0.7 116.8 12.5 124 L 22 127.5 L 0 128 L 0.5 98 Z " /><path fill="rgb(0,0,0)" stroke="rgb(0,0,0)" stroke-width="1" opacity="0" d="M 127.5 105 L 128 128 L 107 127.5 Q 117.8 125.3 123 117.5 L 127.5 105 Z " /><path fill="rgb(22,24,27)" stroke="rgb(22,24,27)" stroke-width="1" opacity="0.996078431372549" d="M 27.5 7 L 99.5 7 L 112.5 12 L 116 15.5 Q 121.6 22.4 120 36.5 L 117 46.5 L 114.5 49 L 109.5 50 L 107.5 47 L 106.5 50 L 106 46.5 L 101.5 41 L 97.5 39 L 79.5 39 L 72 44.5 L 70.5 48 Q 69.2 45.7 68 48.5 Q 68.7 51.5 65 50 L 65 52.5 L 64 52.5 L 62 42.5 L 59.5 39 L 53 40 L 49.5 53 L 49 50.5 L 50 48.5 L 48.5 49 L 46 50.5 L 45.5 53 L 43 42.5 L 41 39.5 L 45 36.5 L 45 27.5 L 46.5 26 L 50.5 25 L 50 26.5 L 51 29.5 L 46 32.5 Q 44.9 35.8 47.5 35 L 50.5 36 L 53 33.5 L 53 20 L 43.5 22 L 42 23.5 L 42 31.5 L 40.5 33 L 37 35.5 L 39 38.5 L 34 40.5 L 36 50.5 L 35 50.5 L 34.5 48 L 34 51 Q 29.9 49.3 31 53.5 L 30 53.5 L 29 49.5 Q 34.5 48 33 39.5 L 26.5 35 L 20 39.5 L 19 43.5 L 22.5 50 L 24 49.5 Q 22.8 52.3 21.5 50 L 13.5 51 Q 5.7 43.3 8 25.5 Q 9.5 15.5 16.5 11 L 27.5 7 Z M 94 22 L 89 25 L 91 27 L 96 25 Q 102 25 107 28 L 114 35 L 115 34 L 114 31 Q 109 21 94 22 Z M 94 27 L 91 28 L 93 31 L 96 30 Q 105 31 109 37 Q 112 38 111 35 L 104 28 L 94 27 Z M 95 32 L 93 35 Q 100 34 103 37 L 105 40 Q 108 41 107 38 Q 105 31 95 32 Z " /><path fill="rgb(224,231,238)" stroke="rgb(224,231,238)" stroke-width="1" opacity="0.9333333333333333" d="M 95.5 24 L 99 24.5 L 95.5 25 L 95.5 24 Z " /><path fill="rgb(224,231,238)" stroke="rgb(224,231,238)" stroke-width="1" opacity="0.9333333333333333" d="M 106.5 25 L 105.5 27 L 106.5 25 Z " /><path fill="rgb(224,231,238)" stroke="rgb(224,231,238)" stroke-width="1" opacity="0.9333333333333333" d="M 108.5 28 L 111.5 32 L 108.5 28 Z " /><path fill="rgb(224,231,238)" stroke="rgb(224,231,238)" stroke-width="1" opacity="0.9333333333333333" d="M 127.5 41 L 128 48.5 L 127 48.5 L 127.5 41 Z " /><path fill="rgb(224,231,238)" stroke="rgb(224,231,238)" stroke-width="1" opacity="0.9333333333333333" d="M 22.5 44 L 23.5 46 L 22.5 44 Z " /><path fill="rgb(224,231,238)" stroke="rgb(224,231,238)" stroke-width="1" opacity="0.9333333333333333" d="M 87.5 45 L 95 45.5 L 87.5 46 L 87.5 45 Z " /><path fill="rgb(224,231,238)" stroke="rgb(224,231,238)" stroke-width="1" opacity="0.9333333333333333" d="M 25.5 46 L 28 46.5 L 25.5 47 L 25.5 46 Z " /><path fill="rgb(224,231,238)" stroke="rgb(224,231,238)" stroke-width="1" opacity="0.9333333333333333" d="M 74.5 51 L 70.5 56 L 69.5 54 L 70.5 55 L 74.5 51 Z " /><path fill="rgb(224,231,238)" stroke="rgb(224,231,238)" stroke-width="1" opacity="0.9333333333333333" d="M 59.5 53 L 62 53.5 L 62.5 55 L 64 54.5 L 63 56.5 L 64 59 Q 60.3 57.5 61 60.5 L 60 60.5 L 59 58.5 L 60 55.5 L 59.5 53 Z " /><path fill="rgb(224,231,238)" stroke="rgb(224,231,238)" stroke-width="1" opacity="0.9333333333333333" d="M 127.5 54 L 128 79.5 L 127 79.5 L 127.5 54 Z " /><path fill="rgb(224,231,238)" stroke="rgb(224,231,238)" stroke-width="1" opacity="0.9333333333333333" d="M 74.5 56 L 75 57.5 L 73 60.5 L 73.5 62 L 71.5 61 L 70 61.5 L 74.5 56 Z " /><path fill="rgb(224,231,238)" stroke="rgb(224,231,238)" stroke-width="1" opacity="0.9333333333333333" d="M 52.5 58 L 54 60.5 L 52 59.5 L 52.5 58 Z " /><path fill="rgb(224,231,238)" stroke="rgb(224,231,238)" stroke-width="1" opacity="0.9333333333333333" d="M 50.5 59 L 52 62.5 L 49.5 63 L 48 61.5 L 50 61.5 L 50.5 59 Z " /><path fill="rgb(224,231,238)" stroke="rgb(224,231,238)" stroke-width="1" opacity="0.9333333333333333" d="M 87.5 62 L 95 62.5 L 87.5 63 L 87.5 62 Z " /><path fill="rgb(224,231,238)" stroke="rgb(224,231,238)" stroke-width="1" opacity="0.9333333333333333" d="M 66.5 63 L 64.5 66 L 66.5 63 Z " /><path fill="rgb(224,231,238)" stroke="rgb(224,231,238)" stroke-width="1" opacity="0.9333333333333333" d="M 43.5 66 L 45.5 67 L 47 66.5 L 43.5 73 L 44 71.5 L 43.5 66 Z " /><path fill="rgb(224,231,238)" stroke="rgb(224,231,238)" stroke-width="1" opacity="0.9333333333333333" d="M 63.5 83 L 64 86.5 L 63 86.5 L 63.5 83 Z " /><path fill="rgb(224,231,238)" stroke="rgb(224,231,238)" stroke-width="1" opacity="0.9333333333333333" d="M 33.5 87 L 34 102.5 L 33 102.5 L 33.5 87 Z " /><path fill="rgb(224,231,238)" stroke="rgb(224,231,238)" stroke-width="1" opacity="0.9333333333333333" d="M 40 87 L 42 87.5 L 40.5 91 L 40 87 Z " /><path fill="rgb(224,231,238)" stroke="rgb(224,231,238)" stroke-width="1" opacity="0.9333333333333333" d="M 84.5 87 L 84 88.5 L 83.5 101 L 83 88.5 L 84.5 87 Z " /><path fill="rgb(224,231,238)" stroke="rgb(224,231,238)" stroke-width="1" opacity="0.9333333333333333" d="M 63.5 88 L 64 105.5 L 63 105.5 L 63.5 88 Z " /><path fill="rgb(224,231,238)" stroke="rgb(224,231,238)" stroke-width="1" opacity="0.9333333333333333" d="M 56.5 90 L 57 105.5 L 56 105.5 L 56.5 90 Z " /><path fill="rgb(224,231,238)" stroke="rgb(224,231,238)" stroke-width="1" opacity="0.9333333333333333" d="M 29.5 91 L 30 98.5 L 29 98.5 L 29.5 91 Z " /><path fill="rgb(224,231,238)" stroke="rgb(224,231,238)" stroke-width="1" opacity="0.9333333333333333" d="M 52.5 91 L 53 97.5 L 52 97.5 L 52.5 91 Z " /><path fill="rgb(224,231,238)" stroke="rgb(224,231,238)" stroke-width="1" opacity="0.9333333333333333" d="M 67.5 91 L 68 97.5 L 67 97.5 L 67.5 91 Z " /><path fill="rgb(224,231,238)" stroke="rgb(224,231,238)" stroke-width="1" opacity="0.9333333333333333" d="M 1 92 L 4.5 92 L 8 94 Q 9.1 96.7 6.5 96 Q 5 99.5 3.5 97 L 1.5 98 L 1 92 Z " /><path fill="rgb(224,231,238)" stroke="rgb(224,231,238)" stroke-width="1" opacity="0.9333333333333333" d="M 44.5 92 L 45 97.5 L 43 98.5 L 44.5 92 Z " /><path fill="rgb(224,231,238)" stroke="rgb(224,231,238)" stroke-width="1" opacity="0.9333333333333333" d="M 79.5 92 L 80 96.5 L 79 96.5 L 79.5 92 Z " /><path fill="rgb(224,231,238)" stroke="rgb(224,231,238)" stroke-width="1" opacity="0.9333333333333333" d="M 123.5 92 L 127 92 L 127 97 L 120 96 L 121.5 93 L 123.5 92 Z " /><path fill="rgb(224,231,238)" stroke="rgb(224,231,238)" stroke-width="1" opacity="0.9333333333333333" d="M 24.5 93 L 27 94.5 Q 27.8 97.1 24.5 96 L 24.5 93 Z " /><path fill="rgb(224,231,238)" stroke="rgb(224,231,238)" stroke-width="1" opacity="0.9333333333333333" d="M 48.5 93 L 49 95.5 L 48 95.5 L 48.5 93 Z " /><path fill="rgb(224,231,238)" stroke="rgb(224,231,238)" stroke-width="1" opacity="0.9333333333333333" d="M 94.5 93 L 95 95.5 L 94 95.5 L 94.5 93 Z " /><path fill="rgb(224,231,238)" stroke="rgb(224,231,238)" stroke-width="1" opacity="0.9333333333333333" d="M 97.5 93 L 101 94.5 L 97.5 96 L 97.5 93 Z " /><path fill="rgb(224,231,238)" stroke="rgb(224,231,238)" stroke-width="1" opacity="0.9333333333333333" d="M 102.5 93 Q 105.5 94.5 102.5 96 L 102.5 93 Z " /><path fill="rgb(224,231,238)" stroke="rgb(224,231,238)" stroke-width="1" opacity="0.9333333333333333" d="M 105.5 93 L 106 95.5 L 105 95.5 L 105.5 93 Z " /><path fill="rgb(224,231,238)" stroke="rgb(224,231,238)" stroke-width="1" opacity="0.9333333333333333" d="M 108.5 93 L 109 95 L 107 94.5 L 108.5 93 Z " /><path fill="rgb(224,231,238)" stroke="rgb(224,231,238)" stroke-width="1" opacity="0.9333333333333333" d="M 75.5 94 L 76.5 96 L 75.5 94 Z " /><path fill="rgb(224,231,238)" stroke="rgb(224,231,238)" stroke-width="1" opacity="0.9333333333333333" d="M 90.5 94 L 91 99.5 L 90 99.5 L 90.5 94 Z " /><path fill="rgb(224,231,238)" stroke="rgb(224,231,238)" stroke-width="1" opacity="0.9333333333333333" d="M 126.5 103 L 127 105.5 L 126 105.5 L 126.5 103 Z " /><path fill="rgb(224,231,238)" stroke="rgb(224,231,238)" stroke-width="1" opacity="0.9333333333333333" d="M 122.5 115 L 121.5 117 L 122.5 115 Z " /><path fill="rgb(224,231,238)" stroke="rgb(224,231,238)" stroke-width="1" opacity="0.9333333333333333" d="M 6.5 116 L 7.5 118 L 6.5 116 Z " /><path fill="rgb(224,231,238)" stroke="rgb(224,231,238)" stroke-width="1" opacity="0.9333333333333333" d="M 10.5 120 L 12.5 123 L 10.5 120 Z " /><path fill="rgb(224,231,238)" stroke="rgb(224,231,238)" stroke-width="1" opacity="0.9333333333333333" d="M 116.5 121 L 115.5 123 L 116.5 121 Z " /><path fill="rgb(224,231,238)" stroke="rgb(224,231,238)" stroke-width="1" opacity="0.9333333333333333" d="M 21.5 126 L 24 126.5 L 21.5 127 L 21.5 126 Z " /><path fill="rgb(224,231,238)" stroke="rgb(224,231,238)" stroke-width="1" opacity="0.9333333333333333" d="M 103.5 126 L 107 126.5 L 103.5 127 L 103.5 126 Z " /><path fill="rgb(224,231,238)" stroke="rgb(224,231,238)" stroke-width="1" opacity="0.9333333333333333" d="M 29.5 127 L 99 127.5 L 29.5 128 L 29.5 127 Z " /><path fill="rgb(254,254,254)" stroke="rgb(254,254,254)" stroke-width="1" opacity="0.9921568627450981" d="M 47.5 22 L 52 23 L 52 33.5 L 50.5 35 L 47 33.5 L 48.5 31 L 51 31 L 51 24 L 44 26 L 43.5 35 L 43 24.5 L 47.5 22 Z M 48 32 Q 47 35 51 34 Q 52 31 48 32 Z " /><path fill="rgb(254,254,254)" stroke="rgb(254,254,254)" stroke-width="1" opacity="0.9921568627450981" d="M 94.5 23 Q 106.8 22.7 112 29.5 L 114 33.5 L 113 33.5 L 108.5 28 Q 104 23.5 94.5 24 L 90.5 25 L 90.5 24 L 94.5 23 Z " /><path fill="rgb(254,254,254)" stroke="rgb(254,254,254)" stroke-width="1" opacity="0.9921568627450981" d="M 94.5 28 Q 104.7 27.8 109 33.5 L 110 35.5 L 104.5 31 Q 101.2 28.3 94.5 29 L 92.5 30 L 92.5 29 L 94.5 28 Z " /><path fill="rgb(254,254,254)" stroke="rgb(254,254,254)" stroke-width="1" opacity="0.9921568627450981" d="M 94.5 33 Q 102.5 32 105 36.5 L 106 38.5 L 101.5 35 L 94.5 34 L 94.5 33 Z " /><path fill="rgb(254,254,254)" stroke="rgb(254,254,254)" stroke-width="1" opacity="0.9921568627450981" d="M 39.5 34 L 42 35.5 L 40.5 35 L 39.5 34 Z " /><path fill="rgb(254,254,254)" stroke="rgb(254,254,254)" stroke-width="1" opacity="0.9921568627450981" d="M 38.5 36 L 42.5 37 L 44 36.5 Q 43.3 38.8 39.5 38 L 38.5 36 Z " /><path fill="rgb(254,254,254)" stroke="rgb(254,254,254)" stroke-width="1" opacity="0.9921568627450981" d="M 25.5 38 L 28 38.5 L 23 41.5 L 25 42.5 L 22.5 44 L 22 41.5 L 23 39 L 25.5 38 Z " /><path fill="rgb(254,254,254)" stroke="rgb(254,254,254)" stroke-width="1" opacity="0.9921568627450981" d="M 29.5 40 L 30 44.5 Q 29.3 46.8 25.5 46 L 25.5 45 L 29 45 L 29.5 40 Z " /><path fill="rgb(254,254,254)" stroke="rgb(254,254,254)" stroke-width="1" opacity="0.9921568627450981" d="M 35.5 40 Q 40 39 41 41.5 L 45 58.5 L 43.5 64 L 42.5 62 L 42 64.5 L 43 68.5 L 42 68.5 L 35 42.5 L 37.5 42 L 40 41.5 L 35.5 41 L 35.5 40 Z M 38 44 L 37 47 L 38 47 L 38 44 Z M 39 48 L 38 51 L 39 51 L 39 48 Z M 40 51 L 39 55 L 40 55 L 40 51 Z M 43 51 L 42 54 L 43 54 L 43 51 Z M 41 55 L 40 58 L 41 58 L 41 55 Z M 44 55 L 43 58 L 44 58 L 44 55 Z M 42 59 L 41 62 L 42 62 L 42 59 Z " /><path fill="rgb(254,254,254)" stroke="rgb(254,254,254)" stroke-width="1" opacity="0.9921568627450981" d="M 55.5 40 Q 59.3 39.3 60 41.5 L 62 49.5 L 61 49.5 L 59.5 43 L 59 46 L 53 48 L 51.5 54 L 51 51.5 L 55.5 40 Z M 55 41 L 56 43 L 59 42 L 55 41 Z M 55 44 L 54 47 L 55 47 L 55 44 Z " /><path fill="rgb(254,254,254)" stroke="rgb(254,254,254)" stroke-width="1" opacity="0.9921568627450981" d="M 80.5 40 L 96.5 40 L 104 45.5 L 105 54.5 L 104 54.5 L 103.5 47 Q 104.5 55.5 100 58.5 L 101.5 59 L 103 58.5 L 97.5 62 L 87.5 62 L 86 63.5 L 86 73 L 80 73 Q 77.8 61.5 84.5 58 Q 88 55.5 95.5 57 L 96.5 56 L 96.5 58 L 100 55.5 L 99.5 54 L 98 54.5 Q 100.3 53.3 99 48.5 Q 96.3 43.3 86.5 45 Q 76 47.5 70.5 55 L 70 52.5 Q 71.3 45.8 75.5 42 L 80.5 40 Z M 81 41 L 81 42 L 97 42 L 81 41 Z M 87 43 L 87 44 L 95 44 L 87 43 Z M 101 48 L 101 54 L 102 51 L 101 48 Z M 72 50 L 72 52 L 74 51 L 72 50 Z M 87 58 L 87 59 L 95 60 L 89 60 L 89 61 L 98 61 L 96 58 L 87 58 Z M 85 63 L 84 71 Q 81 72 82 65 L 81 65 L 81 72 L 85 72 L 85 63 Z " /><path fill="rgb(254,254,254)" stroke="rgb(254,254,254)" stroke-width="1" opacity="0.9921568627450981" d="M 25.5 50 L 29 51.5 L 29 72.5 Q 29 73.5 24.5 73 L 24.5 72 L 28 71.5 L 28 51 L 25 51.5 L 27 52 L 27 70.5 L 24 71 L 24.5 66 L 26 66.5 L 25.5 64 L 24 64.5 L 24 53.5 L 25 52.5 Q 22.7 51.3 25.5 50 Z " /><path fill="rgb(254,254,254)" stroke="rgb(254,254,254)" stroke-width="1" opacity="0.9921568627450981" d="M 67.5 63 L 66.5 66 L 70.5 67 L 71.5 65 L 72 66.5 L 71 70.5 L 68.5 73 Q 64 74 63 71.5 L 62 67 L 67.5 63 Z M 70 68 L 69 71 L 70 71 L 70 68 Z M 65 71 L 65 72 L 69 72 L 65 71 Z " /><path fill="rgb(254,254,254)" stroke="rgb(254,254,254)" stroke-width="1" opacity="0.9921568627450981" d="M 50.5 68 L 51 70.5 L 50 73 Q 44.6 74.5 43 71.5 L 44.5 72 Q 49 73 50 70.5 L 50.5 68 Z " /><path fill="rgb(254,254,254)" stroke="rgb(254,254,254)" stroke-width="1" opacity="0.9921568627450981" d="M 57.5 82 L 58 105.5 L 57 105.5 L 57.5 82 Z " /><path fill="rgb(254,254,254)" stroke="rgb(254,254,254)" stroke-width="1" opacity="0.9921568627450981" d="M 62.5 82 L 63 105.5 L 62 105.5 L 62.5 82 Z " /><path fill="rgb(254,254,254)" stroke="rgb(254,254,254)" stroke-width="1" opacity="0.9921568627450981" d="M 35.5 84 L 36 105.5 L 35 105.5 L 35.5 84 Z " /><path fill="rgb(254,254,254)" stroke="rgb(254,254,254)" stroke-width="1" opacity="0.9921568627450981" d="M 38.5 84 L 39 105.5 L 38 105.5 L 38.5 84 Z " /><path fill="rgb(254,254,254)" stroke="rgb(254,254,254)" stroke-width="1" opacity="0.9921568627450981" d="M 32.5 87 L 33 95.5 L 32 95.5 L 32.5 87 Z " /><path fill="rgb(254,254,254)" stroke="rgb(254,254,254)" stroke-width="1" opacity="0.9921568627450981" d="M 65.5 87 L 66 101.5 L 65 101.5 L 65.5 87 Z " /><path fill="rgb(254,254,254)" stroke="rgb(254,254,254)" stroke-width="1" opacity="0.9921568627450981" d="M 41.5 88 L 42 90.5 L 41 90.5 L 41.5 88 Z " /><path fill="rgb(254,254,254)" stroke="rgb(254,254,254)" stroke-width="1" opacity="0.9921568627450981" d="M 54.5 88 L 55 100.5 L 54 100.5 L 54.5 88 Z " /><path fill="rgb(254,254,254)" stroke="rgb(254,254,254)" stroke-width="1" opacity="0.9921568627450981" d="M 84.5 88 L 85 100.5 L 84 100.5 L 84.5 88 Z " /><path fill="rgb(254,254,254)" stroke="rgb(254,254,254)" stroke-width="1" opacity="0.9921568627450981" d="M 89.5 89 L 90 99.5 L 89 99.5 L 89.5 89 Z " /><path fill="rgb(254,254,254)" stroke="rgb(254,254,254)" stroke-width="1" opacity="0.9921568627450981" d="M 30.5 90 L 31 97.5 L 30 97.5 L 30.5 90 Z " /><path fill="rgb(254,254,254)" stroke="rgb(254,254,254)" stroke-width="1" opacity="0.9921568627450981" d="M 81.5 90 L 82 98.5 L 81 98.5 L 81.5 90 Z " /><path fill="rgb(254,254,254)" stroke="rgb(254,254,254)" stroke-width="1" opacity="0.9921568627450981" d="M 43.5 91 L 44 97.5 L 43 97.5 L 43.5 91 Z " /><path fill="rgb(254,254,254)" stroke="rgb(254,254,254)" stroke-width="1" opacity="0.9921568627450981" d="M 51.5 91 L 52 96.5 L 51 96.5 L 51.5 91 Z " /><path fill="rgb(254,254,254)" stroke="rgb(254,254,254)" stroke-width="1" opacity="0.9921568627450981" d="M 27.5 92 L 28 96.5 L 27 96.5 L 27.5 92 Z " /><path fill="rgb(254,254,254)" stroke="rgb(254,254,254)" stroke-width="1" opacity="0.9921568627450981" d="M 68.5 92 L 69 96.5 L 68 96.5 L 68.5 92 Z " /><path fill="rgb(254,254,254)" stroke="rgb(254,254,254)" stroke-width="1" opacity="0.9921568627450981" d="M 92.5 92 L 93 96.5 L 92 96.5 L 92.5 92 Z " /><path fill="rgb(254,254,254)" stroke="rgb(254,254,254)" stroke-width="1" opacity="0.9921568627450981" d="M 32.5 97 L 33 101.5 L 32 101.5 L 32.5 97 Z " /><path fill="rgb(254,254,254)" stroke="rgb(254,254,254)" stroke-width="1" opacity="0.9921568627450981" d="M 41.5 98 L 42 101.5 L 41 101.5 L 41.5 98 Z " /><path fill="rgb(89,103,115)" stroke="rgb(89,103,115)" stroke-width="1" opacity="0.996078431372549" d="M 24.5 2 L 102.5 2 L 109.5 4 L 113.5 7 L 115 6.5 Q 121.6 12.4 125 21.5 L 126 39.5 L 125 42.5 L 124 71.5 L 122 81.5 L 119.5 86 Q 113.2 85.2 110.5 88 Q 109 85.5 107.5 89 Q 103.5 92 95.5 91 L 92.5 89 L 91 89.5 Q 91.8 87.3 89.5 88 L 86.5 86 L 83 87 Q 84.3 90.3 79.5 89 L 79.5 91 L 76.5 90 L 71.5 91 L 67 90 L 65.5 86 Q 62.1 86.9 64 81.5 L 61 79.5 L 63.5 79 L 69.5 83 L 71.5 83 L 88.5 83 L 89.5 84 L 93.5 83 L 95.5 84 L 97.5 84 L 112.5 83 L 118 79.5 L 123 62.5 L 123 53.5 L 124 52.5 L 124 24.5 L 118 11 L 108.5 5 L 98.5 3 L 28.5 3 L 19.5 5 Q 12.8 7.3 9 12.5 L 4 23.5 L 3 44.5 L 4 45.5 L 4 57.5 L 5 58.5 L 6 70.5 L 11 83 Q 14.9 85.4 24.5 84 L 34.5 81 L 36.5 82 L 38.5 81 Q 41.7 84.8 50.5 83 L 56.5 79 L 59 79 L 58.5 81 Q 56.7 78.3 55 82.5 L 56 86 L 53 87.5 L 52.5 90 L 51.5 88 L 51 90 L 43.5 90 L 43 88.5 L 42 86 Q 39.3 87.1 40 84.5 L 38.5 82 L 34 83 Q 35.5 86.8 32.5 86 L 31 89 L 24.5 91 L 17.5 91 L 6 83.5 L 3 68.5 L 3 58.5 L 2 57.5 L 2 25.5 L 4 17.5 L 9 9 Q 14.8 3.9 24.5 2 Z " /><path fill="rgb(89,103,115)" stroke="rgb(89,103,115)" stroke-width="1" opacity="0.996078431372549" d="M 96.5 22 L 99 22.5 L 96.5 23 L 96.5 22 Z " /><path fill="rgb(89,103,115)" stroke="rgb(89,103,115)" stroke-width="1" opacity="0.996078431372549" d="M 110.5 27 L 112.5 30 L 110.5 27 Z " /><path fill="rgb(89,103,115)" stroke="rgb(89,103,115)" stroke-width="1" opacity="0.996078431372549" d="M 22.5 45 L 23.5 47 L 22.5 45 Z " /><path fill="rgb(89,103,115)" stroke="rgb(89,103,115)" stroke-width="1" opacity="0.996078431372549" d="M 25.5 49 L 28 49.5 L 25.5 50 L 25.5 49 Z " /><path fill="rgb(89,103,115)" stroke="rgb(89,103,115)" stroke-width="1" opacity="0.996078431372549" d="M 77.5 51 L 76.5 53 L 77.5 51 Z " /><path fill="rgb(89,103,115)" stroke="rgb(89,103,115)" stroke-width="1" opacity="0.996078431372549" d="M 73.5 53 Q 75.8 52.3 75 54.5 Q 72.3 58.8 66.5 60 Q 63.5 58.5 66.5 57 L 69.5 58 L 73.5 53 Z " /><path fill="rgb(89,103,115)" stroke="rgb(89,103,115)" stroke-width="1" opacity="0.996078431372549" d="M 48.5 57 L 48 58.5 Q 48.7 61.1 46 60 Q 44.9 57.3 47.5 58 L 48.5 57 Z " /><path fill="rgb(89,103,115)" stroke="rgb(89,103,115)" stroke-width="1" opacity="0.996078431372549" d="M 82.5 58 L 81.5 60 L 82.5 58 Z " /><path fill="rgb(89,103,115)" stroke="rgb(89,103,115)" stroke-width="1" opacity="0.996078431372549" d="M 22.5 65 L 23 71.5 L 22 71.5 L 22.5 65 Z " /><path fill="rgb(89,103,115)" stroke="rgb(89,103,115)" stroke-width="1" opacity="0.996078431372549" d="M 42.5 72 L 43.5 74 L 42.5 72 Z " /><path fill="rgb(250,250,251)" stroke="rgb(250,250,251)" stroke-width="1" opacity="0.9921568627450981" d="M 50.5 21 L 51.5 23 Q 48.7 23.7 50.5 21 Z " /><path fill="rgb(250,250,251)" stroke="rgb(250,250,251)" stroke-width="1" opacity="0.9921568627450981" d="M 43.5 23 L 46 24.5 L 44.5 25 L 43.5 23 Z " /><path fill="rgb(250,250,251)" stroke="rgb(250,250,251)" stroke-width="1" opacity="0.9921568627450981" d="M 47.5 23 L 50 24.5 L 48.5 24 L 47.5 23 Z " /><path fill="rgb(250,250,251)" stroke="rgb(250,250,251)" stroke-width="1" opacity="0.9921568627450981" d="M 93.5 23 L 94.5 25 L 93.5 23 Z " /><path fill="rgb(250,250,251)" stroke="rgb(250,250,251)" stroke-width="1" opacity="0.9921568627450981" d="M 100.5 23 L 99.5 25 L 100.5 23 Z " /><path fill="rgb(250,250,251)" stroke="rgb(250,250,251)" stroke-width="1" opacity="0.9921568627450981" d="M 100.5 28 L 99.5 30 L 100.5 28 Z " /><path fill="rgb(250,250,251)" stroke="rgb(250,250,251)" stroke-width="1" opacity="0.9921568627450981" d="M 48 32 Q 52.1 30.7 51 34 Q 46.9 35.3 48 32 Z " /><path fill="rgb(250,250,251)" stroke="rgb(250,250,251)" stroke-width="1" opacity="0.9921568627450981" d="M 41 33 Q 43.7 31.9 43 34.5 Q 45.3 35.8 42.5 37 Q 38.8 37.8 38 35.5 L 41 35 L 41 33 Z " /><path fill="rgb(250,250,251)" stroke="rgb(250,250,251)" stroke-width="1" opacity="0.9921568627450981" d="M 40.5 40 L 39.5 42 L 35.5 44 L 35.5 41 L 40.5 40 Z " /><path fill="rgb(250,250,251)" stroke="rgb(250,250,251)" stroke-width="1" opacity="0.9921568627450981" d="M 59.5 40 L 58.5 42 L 55.5 43 L 55 41 L 59.5 40 Z " /><path fill="rgb(250,250,251)" stroke="rgb(250,250,251)" stroke-width="1" opacity="0.9921568627450981" d="M 79.5 40 L 80.5 41 L 97 41.5 L 80.5 42 L 79.5 40 Z " /><path fill="rgb(250,250,251)" stroke="rgb(250,250,251)" stroke-width="1" opacity="0.9921568627450981" d="M 60.5 42 L 60 43.5 L 60.5 47 L 62 46.5 L 61 49.5 L 64 56.5 L 63 56.5 L 61.5 53 L 60.5 54 L 57.5 51 L 55 51.5 Q 57.5 53 54 54.5 L 55 56.5 L 52 58 L 52.5 60 L 54 59.5 L 52.5 62 L 50.5 59 L 50 61.5 L 53 63.5 L 51 66.5 L 51.5 68 Q 48.9 67.2 50 70.5 L 50.5 72 L 48.5 72 Q 44.1 73.5 45 70.5 L 51 55.5 L 50.5 54 Q 53.1 54.8 52 51.5 L 53 48 L 55 47.5 L 53 43.5 L 55 44.5 L 55.5 47 L 59 46 L 60.5 42 Z " /><path fill="rgb(250,250,251)" stroke="rgb(250,250,251)" stroke-width="1" opacity="0.9921568627450981" d="M 77.5 42 L 79 42.5 L 74 46.5 L 73.5 48 L 73 46.5 L 73.5 44 L 74.5 45 L 77.5 42 Z " /><path fill="rgb(250,250,251)" stroke="rgb(250,250,251)" stroke-width="1" opacity="0.9921568627450981" d="M 98.5 42 L 101.5 44 L 103 43.5 L 103 45.5 L 105 55.5 L 103 56.5 L 103.5 58 Q 99 62.5 88.5 61 L 88.5 60 L 95 59.5 L 86 58.5 L 95.5 58 L 97 56.5 Q 96.3 54.3 98.5 55 Q 101.3 53.8 100 48.5 Q 96.7 42.3 86 43.5 L 94.5 43 L 101 48.5 L 102 50.5 L 97.5 58 L 96 58.5 Q 97.2 61.3 98.5 59 L 102 56.5 L 103 47.5 L 99.5 43 L 98.5 42 Z " /><path fill="rgb(250,250,251)" stroke="rgb(250,250,251)" stroke-width="1" opacity="0.9921568627450981" d="M 23.5 43 L 25 45.5 L 23 44.5 L 23.5 43 Z " /><path fill="rgb(250,250,251)" stroke="rgb(250,250,251)" stroke-width="1" opacity="0.9921568627450981" d="M 37.5 44 L 38 46.5 L 36 47.5 L 37.5 44 Z " /><path fill="rgb(250,250,251)" stroke="rgb(250,250,251)" stroke-width="1" opacity="0.9921568627450981" d="M 80.5 45 L 83 46.5 L 81.5 46 L 79.5 47 L 80.5 45 Z " /><path fill="rgb(250,250,251)" stroke="rgb(250,250,251)" stroke-width="1" opacity="0.9921568627450981" d="M 77.5 47 L 76.5 49 L 77.5 47 Z " /><path fill="rgb(250,250,251)" stroke="rgb(250,250,251)" stroke-width="1" opacity="0.9921568627450981" d="M 38.5 48 L 39.5 51 L 41.5 48 L 42 49.5 Q 39.3 50.2 40 54.5 L 41 57.5 L 39 58.5 L 40 55.5 L 38.5 48 Z " /><path fill="rgb(250,250,251)" stroke="rgb(250,250,251)" stroke-width="1" opacity="0.9921568627450981" d="M 74.5 49 L 75.5 51 L 74.5 50 L 71 52.5 L 72 50 L 74.5 49 Z " /><path fill="rgb(250,250,251)" stroke="rgb(250,250,251)" stroke-width="1" opacity="0.9921568627450981" d="M 24.5 50 L 28 51 L 28 71.5 L 23 72 L 23 52.5 L 24.5 52 L 24.5 50 Z M 26 52 L 24 54 L 24 65 L 26 64 L 26 67 L 24 67 Q 22 73 27 71 L 27 53 L 26 52 Z " /><path fill="rgb(250,250,251)" stroke="rgb(250,250,251)" stroke-width="1" opacity="0.9921568627450981" d="M 43.5 50 L 43 51.5 L 42.5 54 L 42 51.5 L 43.5 50 Z " /><path fill="rgb(250,250,251)" stroke="rgb(250,250,251)" stroke-width="1" opacity="0.9921568627450981" d="M 44.5 54 L 44 55.5 L 43.5 58 L 43 55.5 L 44.5 54 Z " /><path fill="rgb(250,250,251)" stroke="rgb(250,250,251)" stroke-width="1" opacity="0.9921568627450981" d="M 58.5 54 L 60 57.5 L 59 57.5 L 58.5 54 Z " /><path fill="rgb(250,250,251)" stroke="rgb(250,250,251)" stroke-width="1" opacity="0.9921568627450981" d="M 41.5 59 L 44 65.5 L 42 64.5 L 41.5 62 L 40 62.5 L 41.5 59 Z " /><path fill="rgb(250,250,251)" stroke="rgb(250,250,251)" stroke-width="1" opacity="0.9921568627450981" d="M 73.5 59 L 74 60.5 L 72 63.5 L 72.5 65 Q 70.3 64.3 71 66.5 L 71.5 68 Q 70.8 65.2 66.5 66 L 62.5 71 L 63 69.5 L 64 67.5 L 63.5 66 L 64.5 67 L 68 63.5 L 70.5 60 L 73 61 L 73.5 59 Z " /><path fill="rgb(250,250,251)" stroke="rgb(250,250,251)" stroke-width="1" opacity="0.9921568627450981" d="M 82.5 59 L 85 59.5 L 82 61.5 L 82.5 59 Z " /><path fill="rgb(250,250,251)" stroke="rgb(250,250,251)" stroke-width="1" opacity="0.9921568627450981" d="M 84.5 63 L 85 72 L 81 72 L 81 64.5 L 82 64.5 Q 80.5 72.1 84 71 L 84.5 63 Z " /><path fill="rgb(250,250,251)" stroke="rgb(250,250,251)" stroke-width="1" opacity="0.9921568627450981" d="M 69.5 68 L 70 70.5 L 69.5 73 L 64.5 72 L 63 72.5 Q 64.4 69.8 69 71 L 69.5 68 Z " /><path fill="rgb(250,250,251)" stroke="rgb(250,250,251)" stroke-width="1" opacity="0.9921568627450981" d="M 42.5 69 L 43.5 71 L 42.5 69 Z " /><path fill="rgb(250,250,251)" stroke="rgb(250,250,251)" stroke-width="1" opacity="0.9921568627450981" d="M 59.5 79 L 61 80.5 L 61 106.5 L 60 108.5 L 60.5 110 L 59 109.5 L 59 83.5 L 59 81.5 L 59.5 79 Z " /><path fill="rgb(250,250,251)" stroke="rgb(250,250,251)" stroke-width="1" opacity="0.9921568627450981" d="M 86 88 L 88 88.5 L 88 102 L 86 101.5 L 86 88 Z " /><path fill="rgb(250,250,251)" stroke="rgb(250,250,251)" stroke-width="1" opacity="0.9921568627450981" d="M 40 91 Q 43.5 89.9 42 97.5 L 40.5 102 L 40 91 Z " /><path fill="rgb(250,250,251)" stroke="rgb(250,250,251)" stroke-width="1" opacity="0.9921568627450981" d="M 95.5 93 L 96 95.5 L 95 95.5 L 95.5 93 Z " /><path fill="rgb(250,250,251)" stroke="rgb(250,250,251)" stroke-width="1" opacity="0.9921568627450981" d="M 127.5 93 L 128 95.5 L 127 95.5 L 127.5 93 Z " /><path fill="rgb(250,250,251)" stroke="rgb(250,250,251)" stroke-width="1" opacity="0.9921568627450981" d="M 120.5 118 L 118.5 121 L 120.5 118 Z " /><path fill="rgb(177,178,180)" stroke="rgb(177,178,180)" stroke-width="1" opacity="0.07450980392156863" d="M 31.5 0 L 97 0.5 L 31.5 1 L 31.5 0 Z " /><path fill="rgb(177,178,180)" stroke="rgb(177,178,180)" stroke-width="1" opacity="0.07450980392156863" d="M 22.5 1 L 25 1.5 L 22.5 2 L 22.5 1 Z " /><path fill="rgb(177,178,180)" stroke="rgb(177,178,180)" stroke-width="1" opacity="0.07450980392156863" d="M 104.5 1 L 107 1.5 L 104.5 2 L 104.5 1 Z " /><path fill="rgb(177,178,180)" stroke="rgb(177,178,180)" stroke-width="1" opacity="0.07450980392156863" d="M 111.5 3 L 116 5.5 L 114.5 5 Q 110.8 4.8 111.5 3 Z " /><path fill="rgb(177,178,180)" stroke="rgb(177,178,180)" stroke-width="1" opacity="0.07450980392156863" d="M 12.5 5 L 7.5 11 L 12.5 5 Z " /><path fill="rgb(177,178,180)" stroke="rgb(177,178,180)" stroke-width="1" opacity="0.07450980392156863" d="M 117.5 6 Q 124.1 10.4 126 19.5 L 125 19.5 Q 122.8 10.4 117.5 6 Z " /><path fill="rgb(177,178,180)" stroke="rgb(177,178,180)" stroke-width="1" opacity="0.07450980392156863" d="M 126.5 21 L 127 23.5 L 126 23.5 L 126.5 21 Z " /><path fill="rgb(177,178,180)" stroke="rgb(177,178,180)" stroke-width="1" opacity="0.07450980392156863" d="M 1.5 24 L 2 27.5 L 1 27.5 L 1.5 24 Z " /><path fill="rgb(177,178,180)" stroke="rgb(177,178,180)" stroke-width="1" opacity="0.07450980392156863" d="M 127.5 25 L 128 33.5 L 127 33.5 L 127.5 25 Z " /><path fill="rgb(177,178,180)" stroke="rgb(177,178,180)" stroke-width="1" opacity="0.07450980392156863" d="M 0.5 36 L 1 84.5 L 0 84.5 L 0.5 36 Z " /><path fill="rgb(218,231,244)" stroke="rgb(218,231,244)" stroke-width="1" opacity="0.2196078431372549" d="M 28.5 0 L 31 0.5 L 28.5 1 L 28.5 0 Z " /><path fill="rgb(218,231,244)" stroke="rgb(218,231,244)" stroke-width="1" opacity="0.2196078431372549" d="M 97.5 0 L 100 0.5 L 97.5 1 L 97.5 0 Z " /><path fill="rgb(218,231,244)" stroke="rgb(218,231,244)" stroke-width="1" opacity="0.2196078431372549" d="M 127.5 34 L 128 38.5 L 127 38.5 L 127.5 34 Z " /><path fill="rgb(218,231,244)" stroke="rgb(218,231,244)" stroke-width="1" opacity="0.2196078431372549" d="M 127.5 49 L 128 53.5 L 127 53.5 L 127.5 49 Z " /><path fill="rgb(218,231,244)" stroke="rgb(218,231,244)" stroke-width="1" opacity="0.2196078431372549" d="M 127.5 80 L 128 92.5 L 127 92.5 L 127.5 80 Z " /><path fill="rgb(218,231,244)" stroke="rgb(218,231,244)" stroke-width="1" opacity="0.2196078431372549" d="M 0.5 85 L 1 97.5 L 0 97.5 L 0.5 85 Z " /><path fill="rgb(218,231,244)" stroke="rgb(218,231,244)" stroke-width="1" opacity="0.2196078431372549" d="M 127.5 96 L 128 104.5 L 127 104.5 L 127.5 96 Z " /><path fill="rgb(218,231,244)" stroke="rgb(218,231,244)" stroke-width="1" opacity="0.2196078431372549" d="M 1.5 103 L 2 105.5 L 1 105.5 L 1.5 103 Z " /><path fill="rgb(218,231,244)" stroke="rgb(218,231,244)" stroke-width="1" opacity="0.2196078431372549" d="M 126.5 106 L 127 108.5 L 126 108.5 L 126.5 106 Z " /><path fill="rgb(218,231,244)" stroke="rgb(218,231,244)" stroke-width="1" opacity="0.2196078431372549" d="M 3.5 111 L 6 115.5 L 4 114.5 L 3.5 111 Z " /><path fill="rgb(218,231,244)" stroke="rgb(218,231,244)" stroke-width="1" opacity="0.2196078431372549" d="M 123.5 115 L 123 116.5 L 117.5 123 L 106.5 128 L 99.5 128 L 99.5 127 Q 115.7 127.2 122 117.5 L 123.5 115 Z " /><path fill="rgb(218,231,244)" stroke="rgb(218,231,244)" stroke-width="1" opacity="0.2196078431372549" d="M 6.5 117 Q 10.4 123.1 18 125.5 L 16.5 126 Q 9.1 123.2 6.5 117 Z " /><path fill="rgb(218,231,244)" stroke="rgb(218,231,244)" stroke-width="1" opacity="0.2196078431372549" d="M 24.5 127 L 29 127.5 L 24.5 128 L 24.5 127 Z " /><path fill="rgb(53,61,68)" stroke="rgb(53,61,68)" stroke-width="1" opacity="0.996078431372549" d="M 33.5 4 L 40.5 5 L 41.5 4 L 90.5 4 L 91.5 5 L 102.5 5 L 108.5 7 L 118 14.5 L 122 22.5 L 123 39.5 L 122 40.5 L 122 49.5 L 120 60.5 L 114.5 69 L 112.5 70 L 110.5 70 L 95.5 70 L 92.5 71 L 89 70 L 88.5 64 L 87.5 73 L 87 64.5 Q 88.3 61.8 89.5 64 L 98.5 63 L 105 57.5 L 107 53.5 L 106 50.5 L 107.5 47 L 109.5 50 Q 115.1 50.1 117 46.5 L 120 36.5 L 120 25.5 Q 118.5 16.5 112.5 12 L 99.5 7 L 27.5 7 L 16.5 11 L 12 15.5 Q 6 23.5 8 39.5 L 11 48.5 L 13.5 51 L 22 50 L 19 41.5 L 23.5 36 L 26.5 35 L 33 39.5 Q 34.5 48 29 49.5 L 29.5 51 L 25.5 49 L 22 50.5 L 22.5 52 L 21 52.5 L 22 53.5 L 22 71.5 L 21 71.5 L 20.5 68 L 20 70 L 12.5 70 L 12 68.5 L 8 62.5 Q 8.7 56.8 6 54.5 L 5 27.5 L 9 15.5 L 16.5 8 L 24.5 5 L 32.5 5 L 33.5 4 Z M 25 37 L 22 38 L 21 45 L 26 48 L 30 47 Q 33 46 32 41 Q 31 36 25 37 Z " /><path fill="rgb(53,61,68)" stroke="rgb(53,61,68)" stroke-width="1" opacity="0.996078431372549" d="M 43.5 22 L 43 23.5 L 43 31.5 L 41.5 33 L 42 31.5 L 42 23.5 L 43.5 22 Z " /><path fill="rgb(53,61,68)" stroke="rgb(53,61,68)" stroke-width="1" opacity="0.996078431372549" d="M 49.5 25 L 51 28.5 L 50 28.5 L 49.5 25 Z " /><path fill="rgb(53,61,68)" stroke="rgb(53,61,68)" stroke-width="1" opacity="0.996078431372549" d="M 108.5 29 L 110.5 32 L 108.5 29 Z " /><path fill="rgb(53,61,68)" stroke="rgb(53,61,68)" stroke-width="1" opacity="0.996078431372549" d="M 105.5 33 L 107.5 36 L 105.5 33 Z " /><path fill="rgb(53,61,68)" stroke="rgb(53,61,68)" stroke-width="1" opacity="0.996078431372549" d="M 88.5 46 Q 95.4 45.1 98 48.5 Q 99.3 54.8 95.5 56 Q 83.7 54.2 80 60.5 L 78.5 72 L 77.5 65 L 77 68 Q 74 69.3 75 65.5 L 74 65.5 L 73.5 68 L 73 65.5 L 76 57 Q 78.7 58.1 78 55.5 L 81 51 L 88.5 46 Z " /><path fill="rgb(53,61,68)" stroke="rgb(53,61,68)" stroke-width="1" opacity="0.996078431372549" d="M 35.5 47 L 35 48.5 Q 33.9 51.8 36.5 51 L 36 52.5 L 38 55.5 L 41 69.5 L 40 69.5 L 39.5 67 L 37.5 70 Q 31.4 71.3 32 68.5 L 31 68.5 L 30.5 73 L 30 54.5 L 31 51 Q 35.1 52.7 34 48.5 L 35.5 47 Z " /><path fill="rgb(53,61,68)" stroke="rgb(53,61,68)" stroke-width="1" opacity="0.996078431372549" d="M 69.5 47 L 70.5 49 L 69 49.5 L 70 51.5 L 69 54 L 65.5 56 L 64 53.5 L 65 50.5 L 63 50.5 L 64.5 48 L 65 50 Q 68.8 51.5 68 48.5 L 69.5 47 Z " /><path fill="rgb(53,61,68)" stroke="rgb(53,61,68)" stroke-width="1" opacity="0.996078431372549" d="M 45.5 48 L 46.5 50 L 49.5 48 L 51 50.5 L 49 50.5 L 50 53.5 L 48.5 56 L 47 55.5 L 46.5 57 L 45 53.5 L 46 50.5 L 44 50.5 L 45.5 48 Z " /><path fill="rgb(53,61,68)" stroke="rgb(53,61,68)" stroke-width="1" opacity="0.996078431372549" d="M 56.5 53 L 61 69.5 L 60 69.5 L 59.5 68 L 57.5 69 L 55 68.5 L 54.5 65 L 53.5 68 L 53 65.5 L 56.5 53 Z " /><path fill="rgb(73,87,99)" stroke="rgb(73,87,99)" stroke-width="1" opacity="0.996078431372549" d="M 28.5 3 L 34 3.5 L 28.5 4 L 28.5 3 Z " /><path fill="rgb(73,87,99)" stroke="rgb(73,87,99)" stroke-width="1" opacity="0.996078431372549" d="M 38.5 3 L 41 3.5 L 38.5 4 L 38.5 3 Z " /><path fill="rgb(73,87,99)" stroke="rgb(73,87,99)" stroke-width="1" opacity="0.996078431372549" d="M 77.5 3 L 86 3.5 L 77.5 4 L 77.5 3 Z " /><path fill="rgb(73,87,99)" stroke="rgb(73,87,99)" stroke-width="1" opacity="0.996078431372549" d="M 89.5 3 L 99 3.5 L 89.5 4 L 89.5 3 Z " /><path fill="rgb(73,87,99)" stroke="rgb(73,87,99)" stroke-width="1" opacity="0.996078431372549" d="M 107.5 5 Q 113.3 6.3 116 10.5 L 112.5 8 L 107.5 6 L 107.5 5 Z " /><path fill="rgb(73,87,99)" stroke="rgb(73,87,99)" stroke-width="1" opacity="0.996078431372549" d="M 13.5 8 L 9.5 13 L 13.5 8 Z " /><path fill="rgb(73,87,99)" stroke="rgb(73,87,99)" stroke-width="1" opacity="0.996078431372549" d="M 118.5 13 L 119.5 15 L 118.5 13 Z " /><path fill="rgb(73,87,99)" stroke="rgb(73,87,99)" stroke-width="1" opacity="0.996078431372549" d="M 8.5 14 L 7.5 16 L 8.5 14 Z " /><path fill="rgb(73,87,99)" stroke="rgb(73,87,99)" stroke-width="1" opacity="0.996078431372549" d="M 123.5 24 L 124 26.5 L 123 26.5 L 123.5 24 Z " /><path fill="rgb(73,87,99)" stroke="rgb(73,87,99)" stroke-width="1" opacity="0.996078431372549" d="M 3.5 31 L 4 44.5 L 3 44.5 L 3.5 31 Z " /><path fill="rgb(73,87,99)" stroke="rgb(73,87,99)" stroke-width="1" opacity="0.996078431372549" d="M 123.5 40 L 124 52.5 L 123 52.5 L 123.5 40 Z " /><path fill="rgb(73,87,99)" stroke="rgb(73,87,99)" stroke-width="1" opacity="0.996078431372549" d="M 4.5 47 L 7 67.5 L 11 77 L 14.5 78 L 44.5 78 L 44 76.5 Q 43.4 73.8 49.5 75 L 51 74.5 L 50 77 L 60.5 76 L 62.5 74 Q 64 76.5 69.5 75 L 71 74.5 L 69.5 77 L 82.5 78 L 84.5 78 L 98.5 77 Q 100.2 79.8 106.5 78 L 116 76 L 122 61.5 L 122.5 54 L 123 62.5 L 119 77.5 L 115.5 82 L 97.5 84 L 95.5 84 L 90.5 83 L 88.5 83 L 71.5 83 L 70.5 82 L 68.5 82 L 59.5 78 L 50.5 83 L 41.5 83 L 39.5 82 L 38 82.5 L 38.5 81 L 35.5 82 L 33.5 82 L 24.5 84 L 13.5 84 L 11 83 L 7 74.5 L 5 65.5 L 4.5 47 Z " /><path fill="rgb(73,87,99)" stroke="rgb(73,87,99)" stroke-width="1" opacity="0.996078431372549" d="M 80.5 48 L 83 48.5 L 77.5 54 L 75 54 L 77.5 50 L 80.5 48 Z " /><path fill="rgb(73,87,99)" stroke="rgb(73,87,99)" stroke-width="1" opacity="0.996078431372549" d="M 66.5 56 L 67.5 58 L 65 57.5 L 66.5 56 Z " /><path fill="rgb(73,87,99)" stroke="rgb(73,87,99)" stroke-width="1" opacity="0.996078431372549" d="M 22.5 59 L 23 64.5 L 22 64.5 L 22.5 59 Z " /><path fill="rgb(73,87,99)" stroke="rgb(73,87,99)" stroke-width="1" opacity="0.996078431372549" d="M 24.5 75 L 28 75.5 L 24.5 76 L 24.5 75 Z " /><path fill="rgb(73,87,99)" stroke="rgb(73,87,99)" stroke-width="1" opacity="0.996078431372549" d="M 80.5 75 L 86 75.5 L 80.5 76 L 80.5 75 Z " /><path fill="rgb(69,80,89)" stroke="rgb(69,80,89)" stroke-width="1" opacity="0.996078431372549" d="M 34.5 3 L 38 3.5 L 34.5 4 L 34.5 3 Z " /><path fill="rgb(69,80,89)" stroke="rgb(69,80,89)" stroke-width="1" opacity="0.996078431372549" d="M 41.5 3 L 77 3.5 L 41.5 4 L 39.5 5 L 39.5 4 L 41.5 3 Z " /><path fill="rgb(69,80,89)" stroke="rgb(69,80,89)" stroke-width="1" opacity="0.996078431372549" d="M 86.5 3 L 89 3.5 L 86.5 4 L 86.5 3 Z " /><path fill="rgb(69,80,89)" stroke="rgb(69,80,89)" stroke-width="1" opacity="0.996078431372549" d="M 24.5 4 L 33 4.5 Q 15.3 4.3 9 15.5 Q 2.7 26.3 5 45.5 L 8 62.5 L 12 70 L 19.5 70 L 20 68.5 L 21 68.5 L 21 72 Q 24 71 23 74 L 28.5 74 L 31 73 L 31.5 68 L 32 70 Q 37.4 71.5 39 68.5 L 40.5 66 L 40 67.5 Q 38.9 70.8 41.5 70 Q 39.8 72 43.5 74 Q 51.5 75.5 53 70.5 L 52 68.5 L 54 68 L 53 64.5 L 55 65.5 L 55.5 69 L 57.5 69 L 59.5 68 L 63.5 74 Q 69.5 75.5 71 72.5 L 73 69.5 L 72.5 68 Q 75.1 68.8 74 65.5 L 75 65.5 Q 74 69.3 77 68 L 77.5 65 L 78 71.5 L 80.5 74 Q 85.9 74.6 88 73 L 88 64.5 L 87 63.5 L 89.5 63 L 93 63.5 L 89 64 L 89 70 L 91.5 70 L 94.5 71 L 95.5 70 L 110.5 70 L 111.5 69 L 113.5 69 L 117 66.5 L 121 56.5 L 122 40.5 L 123 39.5 L 123 27.5 L 120 17.5 L 112.5 9 L 102.5 5 L 91 4.5 L 102.5 4 Q 112.2 6.3 118 12.5 Q 125.6 21.4 124 39.5 L 123 40.5 L 122 61.5 L 116 76 L 106.5 78 L 99.5 78 Q 98 75.5 92.5 77 Q 90.8 79.8 84.5 78 L 82.5 78 Q 73.9 79.1 69 76.5 L 69.5 75 Q 64 76.5 62.5 74 L 60.5 76 L 50 77 L 50 75 L 44 75 L 45 77.5 L 14.5 78 L 11 77 L 7 67.5 L 5 57.5 L 4 25.5 Q 6.2 13.7 14.5 8 L 24.5 4 Z M 25 75 L 25 76 L 28 76 L 25 75 Z M 81 75 L 81 76 L 86 76 L 81 75 Z " /><path fill="rgb(69,80,89)" stroke="rgb(69,80,89)" stroke-width="1" opacity="0.996078431372549" d="M 30.5 45 L 29.5 47 L 30.5 45 Z " /><path fill="rgb(69,80,89)" stroke="rgb(69,80,89)" stroke-width="1" opacity="0.996078431372549" d="M 83 47 L 86 47.5 L 81 51 L 78 57 L 76 56.5 L 82 49.5 L 81.5 48 L 83 48.5 L 83 47 Z " /><path fill="rgb(69,80,89)" stroke="rgb(69,80,89)" stroke-width="1" opacity="0.996078431372549" d="M 22.5 52 L 23 58.5 L 22 58.5 L 22.5 52 Z " /><path fill="rgb(69,80,89)" stroke="rgb(69,80,89)" stroke-width="1" opacity="0.996078431372549" d="M 67.5 54 L 69 54.5 L 67.5 57 L 65 56.5 L 67.5 54 Z " /><path fill="rgb(69,80,89)" stroke="rgb(69,80,89)" stroke-width="1" opacity="0.996078431372549" d="M 47.5 55 L 48.5 57 L 47.5 55 Z " /><path fill="rgb(118,147,179)" stroke="rgb(118,147,179)" stroke-width="1" opacity="0.9921568627450981" d="M 88.5 56 L 93 56.5 L 88.5 57 L 88.5 56 Z " /><path fill="rgb(118,147,179)" stroke="rgb(118,147,179)" stroke-width="1" opacity="0.9921568627450981" d="M 126.5 60 L 127 72.5 L 126 72.5 L 126.5 60 Z " /><path fill="rgb(118,147,179)" stroke="rgb(118,147,179)" stroke-width="1" opacity="0.9921568627450981" d="M 47.5 61 L 46.5 63 L 45 62.5 L 47.5 61 Z " /><path fill="rgb(118,147,179)" stroke="rgb(118,147,179)" stroke-width="1" opacity="0.9921568627450981" d="M 1.5 66 L 2 76.5 L 1 76.5 L 1.5 66 Z " /><path fill="rgb(118,147,179)" stroke="rgb(118,147,179)" stroke-width="1" opacity="0.9921568627450981" d="M 79.5 68 L 80 71.5 L 79 71.5 L 79.5 68 Z " /><path fill="rgb(118,147,179)" stroke="rgb(118,147,179)" stroke-width="1" opacity="0.9921568627450981" d="M 125.5 74 L 126 82.5 L 123.5 89 Q 115.2 87.7 111.5 91 L 109.5 91 L 104.5 92 L 104.5 91 L 115.5 88 L 123 88 L 125.5 74 Z " /><path fill="rgb(118,147,179)" stroke="rgb(118,147,179)" stroke-width="1" opacity="0.9921568627450981" d="M 2.5 80 L 4 87 Q 8.6 85.8 10 88.5 L 8.5 88 Q 3.3 89.3 2 86.5 L 2.5 80 Z " /><path fill="rgb(118,147,179)" stroke="rgb(118,147,179)" stroke-width="1" opacity="0.9921568627450981" d="M 11.5 89 L 16 91.5 L 14.5 92 L 11.5 89 Z " /><path fill="rgb(118,147,179)" stroke="rgb(118,147,179)" stroke-width="1" opacity="0.9921568627450981" d="M 21.5 92 L 24 92.5 L 21.5 93 L 21.5 92 Z " /><path fill="rgb(118,147,179)" stroke="rgb(118,147,179)" stroke-width="1" opacity="0.9921568627450981" d="M 75.5 92 L 78 92.5 L 75.5 93 L 75.5 92 Z " /><path fill="rgb(118,147,179)" stroke="rgb(118,147,179)" stroke-width="1" opacity="0.9921568627450981" d="M 99.5 92 L 102 92.5 L 99.5 93 L 99.5 92 Z " /><path fill="rgb(118,147,179)" stroke="rgb(118,147,179)" stroke-width="1" opacity="0.9921568627450981" d="M 18.5 96 L 23.5 96 L 29 98 Q 28 101 31 100 L 31 102.5 L 34 104 Q 34.8 107.8 31.5 109 L 22.5 110 Q 21.3 107.8 16.5 109 L 11 104.5 Q 10.3 98.8 14.5 98 L 18.5 96 Z " /><path fill="rgb(118,147,179)" stroke="rgb(118,147,179)" stroke-width="1" opacity="0.9921568627450981" d="M 72.5 96 L 76.5 96 L 83 100 Q 81.8 103 85.5 102 L 87.5 103 L 91 101 Q 89.9 98.3 92.5 99 Q 94.4 94.9 101.5 96 L 107.5 99 L 109 98.5 L 111 101.5 L 113.5 102 L 116 103.5 L 114.5 106 L 107.5 110 L 96.5 110 L 94.5 111 L 89.5 109 L 84.5 110 L 80.5 110 L 74.5 111 L 69.5 109 L 67.5 109 Q 64.1 109.9 66 104.5 Q 63.5 103 67 101.5 Q 65.9 98.2 68.5 99 L 72.5 96 Z " /><path fill="rgb(118,147,179)" stroke="rgb(118,147,179)" stroke-width="1" opacity="0.9921568627450981" d="M 45 97 L 49.5 97 L 53 99 Q 51.3 103.1 55.5 102 L 55.5 103 L 54 103 L 54 107 L 51.5 107 Q 49.8 110.8 42.5 109 L 40 108.5 L 41 106.5 L 40 103 L 43 101.5 L 43 99 Q 46 100 45 97 Z " /><path fill="rgb(118,147,179)" stroke="rgb(118,147,179)" stroke-width="1" opacity="0.9921568627450981" d="M 55.5 104 L 56 106.5 L 55 106.5 L 55.5 104 Z " /><path fill="rgb(121,132,142)" stroke="rgb(121,132,142)" stroke-width="1" opacity="0.9882352941176471" d="M 26.5 1 L 102 1.5 L 26.5 2 L 26.5 1 Z " /><path fill="rgb(121,132,142)" stroke="rgb(121,132,142)" stroke-width="1" opacity="0.9882352941176471" d="M 21.5 2 L 24 2.5 L 21.5 3 L 21.5 2 Z " /><path fill="rgb(121,132,142)" stroke="rgb(121,132,142)" stroke-width="1" opacity="0.9882352941176471" d="M 103.5 2 L 114 5 L 113.5 7 Q 110.5 3 103.5 3 L 103.5 2 Z " /><path fill="rgb(121,132,142)" stroke="rgb(121,132,142)" stroke-width="1" opacity="0.9882352941176471" d="M 12.5 6 L 10.5 9 L 12.5 6 Z " /><path fill="rgb(121,132,142)" stroke="rgb(121,132,142)" stroke-width="1" opacity="0.9882352941176471" d="M 115.5 6 L 123 15.5 L 121 14.5 L 115 7.5 L 115.5 6 Z " /><path fill="rgb(121,132,142)" stroke="rgb(121,132,142)" stroke-width="1" opacity="0.9882352941176471" d="M 8.5 10 L 7.5 12 L 8.5 10 Z " /><path fill="rgb(121,132,142)" stroke="rgb(121,132,142)" stroke-width="1" opacity="0.9882352941176471" d="M 123.5 17 L 125 20.5 L 124 20.5 L 123.5 17 Z " /><path fill="rgb(121,132,142)" stroke="rgb(121,132,142)" stroke-width="1" opacity="0.9882352941176471" d="M 2.5 22 L 3 24.5 L 2 24.5 L 2.5 22 Z " /><path fill="rgb(121,132,142)" stroke="rgb(121,132,142)" stroke-width="1" opacity="0.9882352941176471" d="M 125.5 23 L 126 26.5 L 125 26.5 L 125.5 23 Z " /><path fill="rgb(121,132,142)" stroke="rgb(121,132,142)" stroke-width="1" opacity="0.9882352941176471" d="M 95.5 27 L 98 27.5 L 95.5 28 L 95.5 27 Z " /><path fill="rgb(121,132,142)" stroke="rgb(121,132,142)" stroke-width="1" opacity="0.9882352941176471" d="M 1.5 29 L 3 68.5 L 4 69.5 L 5 80.5 L 8.5 86 L 17.5 91 L 24.5 91 L 29.5 89 L 28.5 91 L 20.5 93 L 8.5 87 L 4 87 L 2 79.5 L 2 66.5 L 1 65.5 L 1.5 29 Z " /><path fill="rgb(121,132,142)" stroke="rgb(121,132,142)" stroke-width="1" opacity="0.9882352941176471" d="M 126.5 31 L 127 59.5 L 126 60.5 L 125 80.5 L 123 88 L 110.5 89 L 98.5 93 L 95.5 92 L 91 90.5 Q 92.3 87.8 93.5 90 L 102.5 91 L 109.5 87 L 111.5 87 L 119.5 86 L 121 84.5 L 125 63.5 L 125 42.5 L 126 41.5 L 126 39.5 L 126.5 31 Z " /><path fill="rgb(121,132,142)" stroke="rgb(121,132,142)" stroke-width="1" opacity="0.9882352941176471" d="M 39.5 33 L 38.5 35 L 39.5 33 Z " /><path fill="rgb(121,132,142)" stroke="rgb(121,132,142)" stroke-width="1" opacity="0.9882352941176471" d="M 23.5 38 L 22.5 40 L 23.5 38 Z " /><path fill="rgb(121,132,142)" stroke="rgb(121,132,142)" stroke-width="1" opacity="0.9882352941176471" d="M 29.5 38 L 30.5 40 L 29.5 38 Z " /><path fill="rgb(121,132,142)" stroke="rgb(121,132,142)" stroke-width="1" opacity="0.9882352941176471" d="M 39.5 38 L 38.5 40 L 36 39.5 L 39.5 38 Z " /><path fill="rgb(121,132,142)" stroke="rgb(121,132,142)" stroke-width="1" opacity="0.9882352941176471" d="M 81.5 39 L 95 39.5 L 81.5 40 L 81.5 39 Z " /><path fill="rgb(121,132,142)" stroke="rgb(121,132,142)" stroke-width="1" opacity="0.9882352941176471" d="M 21.5 41 L 22 43.5 L 21 43.5 L 21.5 41 Z " /><path fill="rgb(121,132,142)" stroke="rgb(121,132,142)" stroke-width="1" opacity="0.9882352941176471" d="M 75.5 51 L 74.5 53 L 75.5 51 Z " /><path fill="rgb(121,132,142)" stroke="rgb(121,132,142)" stroke-width="1" opacity="0.9882352941176471" d="M 97.5 54 L 96.5 56 L 97.5 54 Z " /><path fill="rgb(121,132,142)" stroke="rgb(121,132,142)" stroke-width="1" opacity="0.9882352941176471" d="M 45.5 55 L 46 60 L 48 60.5 L 45 62 L 45.5 55 Z " /><path fill="rgb(121,132,142)" stroke="rgb(121,132,142)" stroke-width="1" opacity="0.9882352941176471" d="M 71.5 55 L 70 57.5 L 71 58.5 L 66.5 63 L 65 59.5 L 67.5 59 L 70 58.5 Q 67.2 56.7 71.5 55 Z " /><path fill="rgb(121,132,142)" stroke="rgb(121,132,142)" stroke-width="1" opacity="0.9882352941176471" d="M 103.5 58 L 101.5 61 L 103.5 58 Z " /><path fill="rgb(121,132,142)" stroke="rgb(121,132,142)" stroke-width="1" opacity="0.9882352941176471" d="M 79.5 64 L 80 67.5 L 79 67.5 L 79.5 64 Z " /><path fill="rgb(121,132,142)" stroke="rgb(121,132,142)" stroke-width="1" opacity="0.9882352941176471" d="M 29.5 72 L 28.5 74 L 29.5 72 Z " /><path fill="rgb(121,132,142)" stroke="rgb(121,132,142)" stroke-width="1" opacity="0.9882352941176471" d="M 70.5 72 L 69.5 74 L 70.5 72 Z " /><path fill="rgb(121,132,142)" stroke="rgb(121,132,142)" stroke-width="1" opacity="0.9882352941176471" d="M 79.5 72 L 80.5 74 L 79.5 72 Z " /><path fill="rgb(121,132,142)" stroke="rgb(121,132,142)" stroke-width="1" opacity="0.9882352941176471" d="M 86.5 72 L 85.5 74 L 86.5 72 Z " /><path fill="rgb(121,132,142)" stroke="rgb(121,132,142)" stroke-width="1" opacity="0.9882352941176471" d="M 54.5 86 L 56 86.5 L 53.5 88 L 54.5 86 Z " /><path fill="rgb(121,132,142)" stroke="rgb(121,132,142)" stroke-width="1" opacity="0.9882352941176471" d="M 86.5 86 L 89 87.5 L 87.5 87 L 85.5 88 L 86.5 86 Z " /><path fill="rgb(121,132,142)" stroke="rgb(121,132,142)" stroke-width="1" opacity="0.9882352941176471" d="M 51.5 88 L 52 89.5 L 47.5 93 L 44 90.5 L 51 90 L 51.5 88 Z " /><path fill="rgb(121,132,142)" stroke="rgb(121,132,142)" stroke-width="1" opacity="0.9882352941176471" d="M 79.5 89 L 81 89.5 Q 78.3 92.8 72.5 93 L 69 92 Q 67.9 89.3 70.5 90 L 75.5 91 L 79.5 89 Z " /><path fill="rgb(131,163,199)" stroke="rgb(131,163,199)" stroke-width="1" opacity="0.9921568627450981" d="M 121.5 12 L 122.5 14 L 121.5 12 Z " /><path fill="rgb(131,163,199)" stroke="rgb(131,163,199)" stroke-width="1" opacity="0.9921568627450981" d="M 27.5 42 L 26.5 44 L 27.5 42 Z " /><path fill="rgb(131,163,199)" stroke="rgb(131,163,199)" stroke-width="1" opacity="0.9921568627450981" d="M 63.5 64 L 61.5 67 L 63.5 64 Z " /><path fill="rgb(131,163,199)" stroke="rgb(131,163,199)" stroke-width="1" opacity="0.9921568627450981" d="M 86.5 64 L 87 71.5 L 86 71.5 L 86.5 64 Z " /><path fill="rgb(131,163,199)" stroke="rgb(131,163,199)" stroke-width="1" opacity="0.9921568627450981" d="M 25.5 73 L 28 73.5 L 25.5 74 L 25.5 73 Z " /><path fill="rgb(131,163,199)" stroke="rgb(131,163,199)" stroke-width="1" opacity="0.9921568627450981" d="M 45.5 73 L 49 73.5 L 45.5 74 L 45.5 73 Z " /><path fill="rgb(131,163,199)" stroke="rgb(131,163,199)" stroke-width="1" opacity="0.9921568627450981" d="M 64.5 73 L 69 73.5 L 64.5 74 L 64.5 73 Z " /><path fill="rgb(131,163,199)" stroke="rgb(131,163,199)" stroke-width="1" opacity="0.9921568627450981" d="M 81.5 73 L 85 73.5 L 81.5 74 L 81.5 73 Z " /><path fill="rgb(131,163,199)" stroke="rgb(131,163,199)" stroke-width="1" opacity="0.9921568627450981" d="M 126.5 73 L 127 86.5 L 126 90 L 118.5 90 L 111.5 92 L 109.5 92 L 107 91.5 L 110.5 90 L 112.5 90 L 123.5 89 L 125 87.5 L 126.5 73 Z " /><path fill="rgb(131,163,199)" stroke="rgb(131,163,199)" stroke-width="1" opacity="0.9921568627450981" d="M 1.5 77 L 2 86.5 L 3.5 88 Q 10 87 12 90.5 L 10.5 90 L 1 89 L 1.5 77 Z " /><path fill="rgb(131,163,199)" stroke="rgb(131,163,199)" stroke-width="1" opacity="0.9921568627450981" d="M 62.5 81 L 61.5 83 L 62.5 81 Z " /><path fill="rgb(131,163,199)" stroke="rgb(131,163,199)" stroke-width="1" opacity="0.9921568627450981" d="M 39.5 84 L 40 87.5 L 39 87.5 L 39.5 84 Z " /><path fill="rgb(131,163,199)" stroke="rgb(131,163,199)" stroke-width="1" opacity="0.9921568627450981" d="M 65.5 86 L 66.5 88 L 65.5 86 Z " /><path fill="rgb(131,163,199)" stroke="rgb(131,163,199)" stroke-width="1" opacity="0.9921568627450981" d="M 30.5 89 L 31.5 91 L 30.5 89 Z " /><path fill="rgb(131,163,199)" stroke="rgb(131,163,199)" stroke-width="1" opacity="0.9921568627450981" d="M 81.5 89 L 79.5 92 L 78 91.5 L 81.5 89 Z " /><path fill="rgb(131,163,199)" stroke="rgb(131,163,199)" stroke-width="1" opacity="0.9921568627450981" d="M 72.5 95 L 71.5 97 L 67.5 99 L 67.5 98 Q 70.1 98.7 69 96 L 71.5 96 L 72.5 95 Z " /><path fill="rgb(131,163,199)" stroke="rgb(131,163,199)" stroke-width="1" opacity="0.9921568627450981" d="M 16.5 96 L 18 96.5 L 11 101.5 Q 10.3 106.3 13.5 107 L 16.5 109 L 29.5 110 L 34.5 106 L 35.5 108 L 38 106.5 L 38.5 108 L 39.5 105 Q 42.3 106.3 40 107.5 L 40.5 109 L 42.5 109 L 49.5 109 Q 50.6 106.3 54 107 L 54 103 L 55.5 103 L 55 104.5 L 55 107 L 59 107 Q 57.3 112.2 61 111 Q 58.8 105.4 64.5 107 L 64 105.5 L 64.5 102 Q 66.9 104.3 66 109 L 68.5 110 L 70.5 109 L 76.5 111 L 81.5 109 L 84.5 110 L 89.5 109 L 95.5 111 L 96.5 110 L 107.5 110 L 116 104.5 L 114.5 102 L 112.5 101 L 111 101.5 L 109 98.5 L 107.5 99 L 102 96.5 L 103.5 96 L 105.5 97 L 107.5 97 L 110.5 98 L 112.5 98 Q 119.3 98.3 123 101.5 Q 120.2 110.2 113.5 115 L 103.5 119 L 91.5 119 L 90.5 120 L 28.5 120 L 15.5 116 L 7 107.5 L 5 102.5 L 16.5 96 Z " /><path fill="rgb(131,163,199)" stroke="rgb(131,163,199)" stroke-width="1" opacity="0.9921568627450981" d="M 25.5 96 L 26.5 98 L 25.5 96 Z " /><path fill="rgb(131,163,199)" stroke="rgb(131,163,199)" stroke-width="1" opacity="0.9921568627450981" d="M 50.5 96 L 51 98 L 53 98.5 L 51.5 99 L 50.5 96 Z " /><path fill="rgb(131,163,199)" stroke="rgb(131,163,199)" stroke-width="1" opacity="0.9921568627450981" d="M 77.5 96 L 83 99.5 L 81.5 100 L 77.5 96 Z " /><path fill="rgb(131,163,199)" stroke="rgb(131,163,199)" stroke-width="1" opacity="0.9921568627450981" d="M 93.5 97 L 92.5 99 L 91 98.5 L 93.5 97 Z " /><path fill="rgb(131,163,199)" stroke="rgb(131,163,199)" stroke-width="1" opacity="0.9921568627450981" d="M 42.5 98 L 43 101.5 L 42 101.5 L 42.5 98 Z " /><path fill="rgb(131,163,199)" stroke="rgb(131,163,199)" stroke-width="1" opacity="0.9921568627450981" d="M 29.5 99 L 32 99 L 32 103 L 33.5 103 L 33.5 104 L 31 102.5 Q 32.1 99.2 29.5 100 L 29.5 99 Z " /><path fill="rgb(131,163,199)" stroke="rgb(131,163,199)" stroke-width="1" opacity="0.9921568627450981" d="M 88.5 100 L 89 101.5 L 86.5 103 L 85.5 101 L 88 102 L 88.5 100 Z " /></svg>